<svg width="301" height="45" viewBox="0 0 301 45" fill="none" xmlns="http://www.w3.org/2000/svg">
<path d="M7.992 0.736023V34H0.119995V0.736023H7.992Z" fill="#141414"/>
<path d="M37.5105 10C35.8465 10.672 33.3985 11.008 30.1665 11.008C31.8305 11.712 33.0465 12.576 33.8145 13.6C34.5825 14.624 34.9665 15.952 34.9665 17.584C34.9665 19.216 34.5345 20.688 33.6705 22C32.8065 23.28 31.5585 24.288 29.9265 25.024C28.3265 25.76 26.4385 26.128 24.2625 26.128C23.2385 26.128 22.2625 26.032 21.3345 25.84C21.0785 25.968 20.8705 26.176 20.7105 26.464C20.5825 26.72 20.5185 26.992 20.5185 27.28C20.5185 27.76 20.6945 28.144 21.0465 28.432C21.4305 28.688 22.1825 28.816 23.3025 28.816H27.1425C29.0945 28.816 30.8065 29.136 32.2785 29.776C33.7505 30.416 34.8865 31.296 35.6865 32.416C36.4865 33.536 36.8865 34.8 36.8865 36.208C36.8865 38.864 35.7345 40.928 33.4305 42.4C31.1585 43.904 27.8625 44.656 23.5425 44.656C20.4385 44.656 17.9905 44.32 16.1985 43.648C14.4065 43.008 13.1425 42.096 12.4065 40.912C11.7025 39.728 11.3505 38.24 11.3505 36.448H18.1665C18.1665 37.216 18.3105 37.824 18.5985 38.272C18.9185 38.72 19.4785 39.056 20.2785 39.28C21.0785 39.504 22.2305 39.616 23.7345 39.616C25.8145 39.616 27.2545 39.36 28.0545 38.848C28.8545 38.368 29.2545 37.664 29.2545 36.736C29.2545 35.968 28.9505 35.36 28.3425 34.912C27.7345 34.464 26.8225 34.24 25.6065 34.24H21.9105C19.2865 34.24 17.3185 33.776 16.0065 32.848C14.7265 31.888 14.0865 30.672 14.0865 29.2C14.0865 28.272 14.3585 27.376 14.9025 26.512C15.4465 25.616 16.1825 24.88 17.1105 24.304C15.5105 23.44 14.3425 22.432 13.6065 21.28C12.9025 20.096 12.5505 18.672 12.5505 17.008C12.5505 14.16 13.5745 11.904 15.6225 10.24C17.6705 8.54402 20.3745 7.69602 23.7345 7.69602C26.2945 7.76002 28.4545 7.50402 30.2145 6.92802C32.0065 6.35202 33.8465 5.50402 35.7345 4.38402L37.5105 10ZM23.9265 12.688C22.7425 12.688 21.7985 13.072 21.0945 13.84C20.4225 14.576 20.0865 15.6 20.0865 16.912C20.0865 18.288 20.4225 19.36 21.0945 20.128C21.7985 20.864 22.7425 21.232 23.9265 21.232C25.1745 21.232 26.1185 20.864 26.7585 20.128C27.4305 19.392 27.7665 18.288 27.7665 16.816C27.7665 14.064 26.4865 12.688 23.9265 12.688Z" fill="#141414"/>
<path d="M50.4379 7.69602C54.3419 7.69602 57.3979 8.89602 59.6059 11.296C61.8139 13.664 62.9179 16.992 62.9179 21.28C62.9179 24 62.4059 26.384 61.3819 28.432C60.3899 30.448 58.9499 32.016 57.0619 33.136C55.2059 34.256 52.9979 34.816 50.4379 34.816C46.5659 34.816 43.5099 33.632 41.2699 31.264C39.0619 28.864 37.9579 25.52 37.9579 21.232C37.9579 18.512 38.4539 16.144 39.4459 14.128C40.4699 12.08 41.9099 10.496 43.7659 9.37602C45.6539 8.25602 47.8779 7.69602 50.4379 7.69602ZM50.4379 13.264C48.9019 13.264 47.7499 13.92 46.9819 15.232C46.2139 16.512 45.8299 18.512 45.8299 21.232C45.8299 24.016 46.1979 26.048 46.9339 27.328C47.7019 28.608 48.8699 29.248 50.4379 29.248C51.9739 29.248 53.1259 28.608 53.8939 27.328C54.6619 26.016 55.0459 24 55.0459 21.28C55.0459 18.496 54.6619 16.464 53.8939 15.184C53.1579 13.904 52.0059 13.264 50.4379 13.264Z" fill="#141414"/>
<path d="M81.2531 7.79202C82.1811 7.79202 83.0291 7.90402 83.7971 8.12802L82.5971 15.472C81.6371 15.248 80.8691 15.136 80.2931 15.136C78.7891 15.136 77.6371 15.664 76.8371 16.72C76.0691 17.744 75.4611 19.296 75.0131 21.376V34H67.4291V8.51202H74.0531L74.6771 13.456C75.2531 11.696 76.1171 10.32 77.2691 9.32802C78.4531 8.30402 79.7811 7.79202 81.2531 7.79202Z" fill="#141414"/>
<path d="M123.861 34H113.829L104.229 8.22402C104.549 10.752 104.789 12.992 104.949 14.944C105.141 16.864 105.237 19.152 105.237 21.808V34H98.2294V0.736023H108.021L117.861 26.56C117.157 22.176 116.805 18.048 116.805 14.176V0.736023H123.861V34Z" fill="#141414"/>
<path d="M152.137 20.752C152.137 21.808 152.09 22.72 151.993 23.488H136.201C136.457 25.632 137.065 27.136 138.025 28C138.985 28.864 140.313 29.296 142.009 29.296C143.033 29.296 144.025 29.12 144.985 28.768C145.945 28.384 146.985 27.808 148.105 27.04L151.225 31.264C148.249 33.632 144.937 34.816 141.289 34.816C137.161 34.816 133.993 33.6 131.785 31.168C129.577 28.736 128.473 25.472 128.473 21.376C128.473 18.784 128.937 16.464 129.865 14.416C130.793 12.336 132.153 10.704 133.945 9.52002C135.737 8.30402 137.882 7.69602 140.378 7.69602C144.058 7.69602 146.938 8.84802 149.018 11.152C151.098 13.456 152.137 16.656 152.137 20.752ZM144.697 18.592C144.633 14.688 143.257 12.736 140.569 12.736C139.257 12.736 138.233 13.216 137.497 14.176C136.793 15.136 136.361 16.72 136.201 18.928H144.697V18.592Z" fill="#141414"/>
<path d="M177.902 34H171.326L170.99 30.784C169.134 33.472 166.558 34.816 163.262 34.816C160.926 34.816 159.15 34.112 157.934 32.704C156.75 31.296 156.158 29.328 156.158 26.8V8.51202H163.742V25.84C163.742 27.088 163.934 27.968 164.318 28.48C164.734 28.96 165.358 29.2 166.19 29.2C167.79 29.2 169.166 28.208 170.318 26.224V8.51202H177.902V34Z" fill="#141414"/>
<path d="M212.043 7.69602C214.059 7.69602 215.675 8.38402 216.891 9.76002C218.107 11.104 218.715 12.976 218.715 15.376V34H211.131V16.672C211.131 14.4 210.411 13.264 208.971 13.264C208.171 13.264 207.467 13.536 206.859 14.08C206.251 14.624 205.659 15.456 205.083 16.576V34H197.499V16.672C197.499 14.4 196.779 13.264 195.339 13.264C194.571 13.264 193.867 13.552 193.227 14.128C192.619 14.672 192.027 15.488 191.451 16.576V34H183.867V8.51202H190.491L191.019 11.488C192.011 10.208 193.099 9.26402 194.283 8.65602C195.499 8.01602 196.875 7.69602 198.411 7.69602C199.851 7.69602 201.083 8.04802 202.107 8.75202C203.163 9.45602 203.931 10.448 204.411 11.728C205.435 10.352 206.555 9.34402 207.771 8.70402C209.019 8.03202 210.443 7.69602 212.043 7.69602Z" fill="#141414"/>
<path d="M244.669 26.608C244.669 27.568 244.797 28.272 245.053 28.72C245.341 29.168 245.789 29.504 246.397 29.728L244.813 34.672C243.245 34.544 241.965 34.208 240.973 33.664C239.981 33.088 239.213 32.192 238.669 30.976C237.005 33.536 234.446 34.816 230.99 34.816C228.462 34.816 226.445 34.08 224.941 32.608C223.437 31.136 222.686 29.216 222.686 26.848C222.686 24.064 223.709 21.936 225.757 20.464C227.805 18.992 230.765 18.256 234.637 18.256H237.229V17.152C237.229 15.648 236.91 14.624 236.27 14.08C235.63 13.504 234.51 13.216 232.91 13.216C232.078 13.216 231.069 13.344 229.885 13.6C228.701 13.824 227.485 14.144 226.237 14.56L224.509 9.56802C226.109 8.96002 227.742 8.49602 229.406 8.17602C231.102 7.85602 232.669 7.69602 234.109 7.69602C237.757 7.69602 240.43 8.44802 242.126 9.95202C243.822 11.456 244.669 13.712 244.669 16.72V26.608ZM233.197 29.392C234.925 29.392 236.269 28.576 237.229 26.944V22.432H235.357C233.629 22.432 232.333 22.736 231.469 23.344C230.637 23.952 230.221 24.896 230.221 26.176C230.221 27.2 230.478 28 230.99 28.576C231.534 29.12 232.269 29.392 233.197 29.392Z" fill="#141414"/>
<path d="M265.638 7.69602C267.846 7.69602 269.574 8.36802 270.822 9.71202C272.07 11.056 272.694 12.944 272.694 15.376V34H265.11V16.672C265.11 15.392 264.902 14.512 264.486 14.032C264.102 13.52 263.51 13.264 262.71 13.264C261.174 13.264 259.702 14.368 258.294 16.576V34H250.71V8.51202H257.334L257.862 11.536C258.95 10.256 260.118 9.29602 261.366 8.65602C262.646 8.01602 264.07 7.69602 265.638 7.69602Z" fill="#141414"/>
<path d="M293.341 7.69602C295.549 7.69602 297.277 8.36802 298.525 9.71202C299.773 11.056 300.397 12.944 300.397 15.376V34H292.814V16.672C292.814 15.392 292.605 14.512 292.189 14.032C291.805 13.52 291.213 13.264 290.413 13.264C288.877 13.264 287.405 14.368 285.997 16.576V34H278.413V8.51202H285.038L285.565 11.536C286.653 10.256 287.821 9.29602 289.069 8.65602C290.349 8.01602 291.773 7.69602 293.341 7.69602Z" fill="#141414"/>
</svg>
